<?xml version="1.0" encoding="UTF-8" standalone="no"?>
<svg
   version="1.1"
   x="0px"
   y="0px"
   viewBox="0 0 100 125"
   style="enable-background:new 0 0 100 100;"
   xml:space="preserve"
   id="svg3"
   sodipodi:docname="brown arrow.svg"
   inkscape:version="1.4 (e7c3feb1, 2024-10-09)"
   xmlns:inkscape="http://www.inkscape.org/namespaces/inkscape"
   xmlns:sodipodi="http://sodipodi.sourceforge.net/DTD/sodipodi-0.dtd"
   xmlns="http://www.w3.org/2000/svg"
   xmlns:svg="http://www.w3.org/2000/svg"><defs
     id="defs3" /><sodipodi:namedview
     id="namedview3"
     pagecolor="#ffffff"
     bordercolor="#000000"
     borderopacity="0.25"
     inkscape:showpageshadow="2"
     inkscape:pageopacity="0.0"
     inkscape:pagecheckerboard="0"
     inkscape:deskcolor="#d1d1d1"
     inkscape:zoom="3.787343"
     inkscape:cx="41.981938"
     inkscape:cy="75.250644"
     inkscape:window-width="1376"
     inkscape:window-height="1067"
     inkscape:window-x="0"
     inkscape:window-y="25"
     inkscape:window-maximized="0"
     inkscape:current-layer="svg3" /><g
     id="g2"><path
       d="M78.1,82.3c1.9,0.1,1.2-1.8-0.3-1.9C41.5,78.1,18.7,47.9,6.4,16.5c-0.6-3.7-1-7.4-1.2-11.2C5.2,4.2,2.4,3.8,2.4,5.2   c0.1,1.1,0.1,2.3,0.2,3.4C1.8,8.4,0.8,8.5,1,9.3c0.8,2.4,1.7,4.7,2.6,7.1C9.8,54,37,88.2,78.1,88.2c1.9,0,1.2-1.9-0.3-1.9   c-35.1,0-59.1-26-68.4-56.9C23.2,56.9,45.5,80.2,78.1,82.3z"
       id="path1"
       style="fill:#663c1f;fill-opacity:1" /><path
       d="m 98,82.2 c -3.6,-1.9 -7.1,-4 -10.4,-6.4 -2,-1.5 -3.9,-3.1 -5.9,-4.5 0,-0.1 0,-0.3 0,-0.4 0,-1 -2.4,-2.3 -2.4,-1.4 0.1,8.1 0.2,16.3 0.3,24.4 0,1 2.4,2.3 2.4,1.4 v 0 c 0.1,0 0.2,0 0.3,-0.1 4.8,-3.8 9.8,-7.2 15,-10.3 0.9,-0.5 -1.2,-2.5 -2,-2 -4.6,2.7 -9.1,5.7 -13.4,9 -0.1,-6.3 -0.2,-12.7 -0.2,-19 2.6,1.7 4.9,3.9 7.5,5.6 2.8,1.9 5.7,3.6 8.6,5.1 1.7,1.1 1.4,-0.7 0.2,-1.4 z"
       id="path2"
       style="opacity:1;mix-blend-mode:normal;fill:#663c1f;fill-opacity:1" /></g></svg>
