<svg xmlns="http://www.w3.org/2000/svg" xmlns:xlink="http://www.w3.org/1999/xlink" version="1.1" x="0px" y="0px" viewBox="0 0 100 125" style="enable-background:new 0 0 100 100;" xml:space="preserve"><g><path d="M78.1,82.3c1.9,0.1,1.2-1.8-0.3-1.9C41.5,78.1,18.7,47.9,6.4,16.5c-0.6-3.7-1-7.4-1.2-11.2C5.2,4.2,2.4,3.8,2.4,5.2   c0.1,1.1,0.1,2.3,0.2,3.4C1.8,8.4,0.8,8.5,1,9.3c0.8,2.4,1.7,4.7,2.6,7.1C9.8,54,37,88.2,78.1,88.2c1.9,0,1.2-1.9-0.3-1.9   c-35.1,0-59.1-26-68.4-56.9C23.2,56.9,45.5,80.2,78.1,82.3z"/><path d="M98,82.2c-3.6-1.9-7.1-4-10.4-6.4c-2-1.5-3.9-3.1-5.9-4.5c0-0.1,0-0.3,0-0.4c0-1-2.4-2.3-2.4-1.4   c0.1,8.1,0.2,16.3,0.3,24.4c0,1,2.4,2.3,2.4,1.4v0c0.1,0,0.2,0,0.3-0.1c4.8-3.8,9.8-7.2,15-10.3c0.9-0.5-1.2-2.5-2-2   c-4.6,2.7-9.1,5.7-13.4,9c-0.1-6.3-0.2-12.7-0.2-19c2.6,1.7,4.9,3.9,7.5,5.6c2.8,1.9,5.7,3.6,8.6,5.1C99.5,84.7,99.2,82.9,98,82.2z   "/></g><text x="0" y="115" fill="#000000" font-size="5px" font-weight="bold" font-family="'Helvetica Neue', Helvetica, Arial-Unicode, Arial, Sans-serif">Created by Darshana Girkar</text><text x="0" y="120" fill="#000000" font-size="5px" font-weight="bold" font-family="'Helvetica Neue', Helvetica, Arial-Unicode, Arial, Sans-serif">from the Noun Project</text></svg>