<?xml version="1.0" encoding="UTF-8" standalone="no"?>
<!-- Created with Inkscape (http://www.inkscape.org/) -->

<svg
   version="1.1"
   id="svg1"
   width="4000"
   height="5644.7998"
   viewBox="0 0 4000 5644.7998"
   sodipodi:docname="rangobg3.svg"
   inkscape:version="1.3.2 (091e20e, 2023-11-25, custom)"
   xml:space="preserve"
   xmlns:inkscape="http://www.inkscape.org/namespaces/inkscape"
   xmlns:sodipodi="http://sodipodi.sourceforge.net/DTD/sodipodi-0.dtd"
   xmlns="http://www.w3.org/2000/svg"
   xmlns:svg="http://www.w3.org/2000/svg"><defs
     id="defs1" /><sodipodi:namedview
     id="namedview1"
     pagecolor="#ffffff"
     bordercolor="#000000"
     borderopacity="0.25"
     inkscape:showpageshadow="2"
     inkscape:pageopacity="0.0"
     inkscape:pagecheckerboard="0"
     inkscape:deskcolor="#d1d1d1"
     inkscape:zoom="0.15900777"
     inkscape:cx="1518.7937"
     inkscape:cy="3157.0785"
     inkscape:window-width="1278"
     inkscape:window-height="1360"
     inkscape:window-x="-7"
     inkscape:window-y="0"
     inkscape:window-maximized="0"
     inkscape:current-layer="group-R5"><inkscape:page
       x="0"
       y="0"
       inkscape:label="1"
       id="page1"
       width="4000"
       height="5644.7998"
       margin="0"
       bleed="0" /></sodipodi:namedview><g
     id="g1"
     inkscape:groupmode="layer"
     inkscape:label="1"
     style="display:inline"
     transform="translate(0,-4.112e-5)"><g
       id="group-R5"
       transform="matrix(1.0021686,0,0,1,-8.6740721,0)"
       style="display:inline"><path
         id="path2"
         d="M 30000,42336 V 0 H 65.4102 V 42336 H 30000"
         style="display:inline;fill:#ffbc3e;fill-opacity:1;fill-rule:nonzero;stroke:none"
         transform="matrix(0.13333333,0,0,-0.13333333,0,5644.8)" /><path
         id="path3"
         d="m 29076.5,23313.6 c -179.2,-640.1 162.9,-1294.3 426.2,-1904.6 263.3,-610.2 430.5,-1389.8 -13.6,-1883.9 -414.2,-461 -1129.8,-425.7 -1748.2,-393.6 -585.8,30.9 -1183.6,24.4 -1742.2,-153.7 -558.7,-177.5 -1078.8,-549.4 -1318.8,-1084.2 -240,-534.8 -137.9,-1236.8 320.9,-1601.6 379.5,-301.3 899,-326.8 1372.5,-431.1 472.9,-104.2 991.4,-380 1057,-860.5 64.1,-469.7 -338.2,-867.1 -731.8,-1132 -393.1,-265 -848.6,-528.3 -988.1,-981.6 -186.3,-604.9 345.8,-1252.5 965.3,-1383.9 619.5,-130.9 1257.4,124.8 1791.1,465.3 519.6,331.1 985.9,747 1533.2,1027.2 V 9865.9 c -154.7,97.8 -312.7,185.7 -489.7,223.7 -495.7,105.9 -970.8,-204.6 -1437.7,-402.8 -938.7,-398.5 -2057.1,-343.7 -2952.4,143.9 -894.7,487.5 -1547.3,1398 -1721.1,2402.4 -86.8,501.1 -60.7,1017.4 -162.8,1515.8 -102.6,497.9 -374.1,1005.5 -847.5,1192.3 -438.2,172.6 -958.8,35.8 -1386.1,234.5 -602.1,279.6 -743.3,1085.9 -630.4,1740.6 179.8,1044.1 813.3,2001.8 1703.8,2575.1 499.4,322 1065.2,522.9 1591.2,798.1 525.6,275.8 1032.7,651 1279.7,1190.6 527.2,1152.1 -305.6,2545.8 83.6,3751.1 218.8,676.5 802.5,1186.3 1449.6,1481.7 647.7,295.3 1361.2,405 2064.8,511.9 504.9,77.1 988.1,129.2 1455,99.9 V 24292 c -425.1,-208 -793.2,-513.7 -923.5,-978.4"
         style="display:inline;fill:#ffc655;fill-opacity:1;fill-rule:nonzero;stroke:none"
         transform="matrix(0.13333333,0,0,-0.13333333,0,5644.8)" /><path
         id="path4"
         d="m 23799.8,29764.8 c 451.3,-99.1 902.4,-201.4 1355.6,-250.7 1219.6,-132.5 2528.1,122.7 3461,962.1 1261.3,1135.1 1408.7,3453.4 24.4,4434.8 -788.1,558.8 -1823,583.7 -2789.1,587.6 -2080.4,8.4 -4211.3,8.5 -6167.7,-699.2 -1956.3,-707.8 -3735.1,-2279.8 -4087.5,-4330.2 -374.4,-2179.2 882,-4503 97.6,-6570.2 -610.9,-1609.6 -2289.9,-2548.2 -3929.3,-3073.9 -1639.4,-525.7 -3392.7,-789.4 -4868.18,-1676.4 -1693.48,-1018.1 -2873.79,-2847.1 -3103.77,-4809.6 -120.75,-1030.4 24.16,-2126.8 606.16,-2985.7 582.01,-858.8 1656.67,-1421.7 2672.85,-1212.6 856.99,176.3 1518.3,830.6 2225.27,1346.1 706.97,515.4 1655.27,915.6 2435.87,520.4 802.1,-406.1 1026.9,-1443.2 1031.3,-2342.1 4.5,-899 -102.4,-1864.2 359,-2635.8 710.6,-1188.4 2365.1,-1315.6 3744.7,-1197.2 1379.6,118.3 2942.9,289.9 3984.2,-622.8 1090.2,-955.5 1097.5,-2681.2 1993.6,-3820.8 C 23730.3,263.797 25339.2,-67.5 26749.1,177.098 27815.5,362 28891.8,887.203 29413.6,1835.5 c 521.9,948.3 259.5,2348.4 -723.5,2801.6 -445.4,205.4 -1090.7,334.3 -1111.1,824.3 -10.2,244.2 162.9,451.7 267.4,672.7 436.4,923.1 -428,2021.3 -1417.8,2272 -989.8,250.8 -2022.3,-53.5 -3026.3,-239.3 -1004.1,-185.8 -2153,-214.9 -2921.2,457.8 -737.2,645.5 -880.8,1714.1 -1249.1,2622.1 -777.6,1917.3 -2810.7,3251.1 -4879.1,3200.8 -1619,-39.3 -3149.5,-838.9 -4768.91,-862.2 -463.77,-6.7 -980.27,78.9 -1264.83,445.2 -414.16,533.1 -101.94,1321.1 328.89,1840.7 1141.83,1377.4 3086.25,2034.9 4829.65,1633.3 942.4,-217.2 1836.5,-717.3 2803.4,-694.7 1002.8,23.5 1904.3,608.9 2663.6,1264.4 1212.7,1047 2273.8,2473.9 2237.2,4075.6 -23.7,1037.9 -503.6,2002 -934.6,2946.4 -413.4,906 -940.1,1996.6 -961.2,3014.1 -19.8,955.8 1193.5,1632.8 1999.4,1816.2 848.3,193 1681.6,21.2 2514.3,-161.7"
         style="display:inline;fill:#ffc655;fill-opacity:1;fill-rule:nonzero;stroke:none"
         transform="matrix(0.13333333,0,0,-0.13333333,0,5644.8)" /><path
         id="path5"
         d="m 21175.3,0 h -2163 c -228,549.398 -484.8,1092.9 -975.6,1406.7 -899.6,576 -2076.1,94.4 -3024.6,-396.4 C 14063.6,519.5 12896.3,26 11985.8,584.102 10588.3,1440.3 11089.4,3983.4 9635.51,4740.2 8940.56,5101.8 8064.82,4856.9 7430.15,4396.6 6795.48,3936.7 6324.77,3290.6 5770.45,2736.3 5216.12,2182 4512.5,1695.5 3729.05,1700.4 c -1094.54,7 -1934.98,934.9 -2599.51,1804.7 -323.044,422.4 -668.895,866.5 -1064.1298,1227 v 4517.1 c 0.5273,0 0.5273,0 1.0859,0 472.3279,67.9 1004.9339,-50.5 1295.9639,-428.4 224.75,-291.5 268.73,-683.5 256.8,-1051.6 -12.49,-368.1 -72.21,-737.9 -22.27,-1103.2 156.36,-1144 1722.7,-1345.9 2613.08,-969.2 659.12,278.6 1183.04,796 1698.28,1293.3 514.69,497.3 1058.7,1000.1 1734.1,1237.3 940.89,330.7 2104.91,79.3 2701.05,-732.4 662.3,-902.3 1479.4,-1627.7 1992.5,-2653.8 173.2,-345.8 322,-708.5 557.1,-1015.8 235,-307.3 578.7,-558.7 965.3,-574.4 614,-24.5 1005.4,406.6 1515.3,651.5 486.4,234 1033.7,329 1570.7,285 1061.3,-86.8 2033.7,-725.3 2519.6,-1654.8 468.6,-896.9 629.3,-2131.501 1575.6,-2489.8016 44.5,-16.8984 89.6,-31 135.7,-42.8984"
         style="display:inline;fill:#ffc655;fill-opacity:1;fill-rule:nonzero;stroke:none"
         transform="matrix(0.13333333,0,0,-0.13333333,0,5644.8)" /><path
         id="path6"
         d="m 30000,40687.7 v -3392.2 c -395.8,-272.5 -913.7,-369.7 -1291.6,-95.6 -425.1,308.4 -494.6,937.7 -890.4,1283 -383.8,335.5 -986,305.7 -1435.5,65.7 -450.1,-240.5 -781.3,-649.3 -1097.8,-1049 -316.5,-399.5 -642.8,-811.1 -1086.9,-1061.4 -232.4,-130.3 -506.5,-212.8 -765.5,-150.9 -258.5,62.4 -484.9,304 -461.5,569 19.5,223.7 199.8,406.6 229.6,628.7 41.9,308.9 -238.3,592.3 -545.1,647.7 -306.7,55.9 -618.9,-62.4 -888.7,-218.8 -759,-440.3 -1296.5,-1171.1 -1937.2,-1771 -641.2,-599.4 -1510.4,-1096.2 -2362.8,-887.7 -660.2,161.2 -1185.2,771 -1247.6,1447.4 -61.9,677.1 343.7,1371.5 963.1,1650.5 414.3,186.3 913.8,207.4 1250.4,512 351.8,318.7 411,854.6 338.2,1323.7 -73.3,469 -253,919.7 -290.5,1393.1 -20,252.5 13.1,522.3 110.8,754.1 h 3435.1 c -722.1,-353.4 -1424.1,-887.7 -1604.3,-1658.6 -66.8,-287.2 3.8,-622.8 237.2,-803 278.5,-216.1 690.6,-147.7 996.3,28.2 305.7,175.9 550,442 846.4,633.1 296.4,191.6 690.1,300.7 997.9,129.2 317,-177 433.8,-583.6 721.5,-804.6 354,-270.9 874.7,-187.3 1259.1,39.1 383.8,226.4 684.1,569.5 1040.7,836.6 962.1,719.9 2405.2,792.7 3354.8,56.5 42.9,-33.1 84.1,-68.4 124.3,-104.8"
         style="display:inline;fill:#ffc655;fill-opacity:1;fill-rule:nonzero;stroke:none"
         transform="matrix(0.13333333,0,0,-0.13333333,0,5644.8)" /><path
         id="path7"
         d="M 9565.47,24066.1 C 8322.72,22585.6 5961.56,22363 4861.05,20773.8 4257.31,19901.9 4141.68,18749.3 3481.47,17919.1 2941.26,17238.9 2056.83,16800.7 1784.84,15976 c -225.31,-684.6 45.07,-1418.6 168.84,-2128.8 141.17,-812.2 72.21,-1696.6 -384.92,-2382.3 -335.54,-503.3 -913.19,-862.2 -1503.3498,-908.3 v 3095.1 c 69.4848,81.5 126.5038,172.2 166.6638,276.9 168.844,440.4 -49.383,905.1 -166.6638,1374.2 -47.2422,189.5 -78.1797,380 -60.25786,569.5 9.22266,98.3 29.84766,190.6 60.25786,276.9 378.3988,1083.7 2271.5798,1303 2668.4598,2476.3 129.21,382.2 68.95,799.2 108.05,1200.9 89.58,921.4 707.95,1726 1465.34,2259.1 462.57,325.8 975.09,566.3 1503.91,772.1 491.89,191.1 390.89,913.1 -134.12,964.7 -254.1,25 -515.22,4.4 -759,-57.5 C 4235.04,23591.6 3652.49,23158.9 3089.5,22736 2202.34,22069.2 1315.75,21402 427.535,20736.4 312.426,20650 191.359,20548.5 65.4102,20443.7 v 1954 c 173.7458,-66.8 369.1758,-55.9 541.8358,17.4 1373.584,585.8 2604.944,1442 3904.164,2171.7 867.59,487 1778.07,922.9 2746.64,1167.3 688.43,173.7 1961.05,678.1 2533.29,42.3 425.06,-472.3 182.41,-1243.3 -225.87,-1730.3"
         style="display:inline;fill:#ffc655;fill-opacity:1;fill-rule:nonzero;stroke:none"
         transform="matrix(0.13333333,0,0,-0.13333333,0,5644.8)" /><path
         id="path8"
         d="m 16435.1,42336 c -401.8,-336.6 -805.7,-675.4 -1134.2,-1067.4 -766.1,-913.7 -1107.6,-2118.5 -1213.4,-3306.4 -247.6,-2777.6 788.8,-5710.4 -442,-8359.9 -561.3,-1208 -1621.7,-2233.6 -2924.7,-2511 -1001.15,-212.9 -2034.87,21.1 -3053.94,118.3 -1516.37,145 -3078.36,-22.8 -4478.03,-622.2 C 1910.26,26040.2 776.086,25117.7 65.4102,23927.1 v 2400.3 c 195.9878,162.3 399.0548,314.9 608.0818,458.7 1491.928,1025.6 3264.028,1595.7 5058.408,1840.6 1312.77,179.7 2688.56,203.6 3869.41,803.5 1432.19,727.5 2356.29,2216.2 2772.69,3767.9 791.6,2948 -353.4,6713.2 1949.1,9137.9 h 2112"
         style="display:inline;fill:#ffc655;fill-opacity:1;fill-rule:nonzero;stroke:none"
         transform="matrix(0.13333333,0,0,-0.13333333,0,5644.8)" /><path
         id="path9"
         d="m 11386.4,40080.7 c -171.5,-774.2 -1034.8,-1197.7 -1825.28,-1263.9 -790.49,-65.7 -1589.13,110.7 -2375.81,11.4 -786.71,-99.4 -1623.89,-610.3 -1696.11,-1399.7 -46.15,-507.6 237.8,-989.7 583.65,-1363.3 346.37,-373.5 763.35,-679.1 1083.67,-1074.9 917.53,-1134.2 809.51,-2950.3 -206.3,-3997.6 -1015.81,-1046.7 -2791.18,-1223.2 -4017.1,-433.2 -530.97,342.5 -989.19,849.6 -1609.77,970.2 -426.19,82.5 -845.315,-32.1 -1257.9398,-190.1 v 3276.6 c 204.1248,64.1 411.5388,116.7 621.6558,158 438.134,85.7 888.744,122.7 1311.684,266.5 422.94,143.9 829.04,419.7 995.18,834.5 312.74,780.2 -324.67,1628.8 -276.89,2467.6 46.71,820.9 756.3,1473.5 1527.23,1758.5 770.96,284.5 1611.96,290.5 2428.52,382.2 415.33,46.2 855.11,128.7 1158.04,415.9 353.98,336.1 432.72,867.1 440.86,1355.2 0.55,27.1 1.08,54.3 0.55,81.4 h 3068.56 c -156.3,-260.1 -128.1,-609.7 -43.4,-1076.1 71.1,-390.9 174.8,-791.5 89,-1179.2"
         style="display:inline;fill:#ffc655;fill-opacity:1;fill-rule:nonzero;stroke:none"
         transform="matrix(0.13333333,0,0,-0.13333333,0,5644.8)" /></g></g></svg>
