<?xml version="1.0" encoding="UTF-8" standalone="no"?>
<!-- Created with Inkscape (http://www.inkscape.org/) -->

<svg
   version="1.1"
   id="svg1"
   width="11220.538"
   height="3992.6562"
   viewBox="0 0 11283.978 4015.2304"
   sodipodi:docname="rangobg3-wrapped.svg"
   inkscape:version="1.4 (e7c3feb1, 2024-10-09)"
   xml:space="preserve"
   xmlns:inkscape="http://www.inkscape.org/namespaces/inkscape"
   xmlns:sodipodi="http://sodipodi.sourceforge.net/DTD/sodipodi-0.dtd"
   xmlns="http://www.w3.org/2000/svg"
   xmlns:svg="http://www.w3.org/2000/svg"><defs
     id="defs1" /><sodipodi:namedview
     id="namedview1"
     pagecolor="#ffffff"
     bordercolor="#000000"
     borderopacity="0.25"
     inkscape:showpageshadow="2"
     inkscape:pageopacity="0.0"
     inkscape:pagecheckerboard="0"
     inkscape:deskcolor="#d1d1d1"
     inkscape:zoom="0.083234652"
     inkscape:cx="2643.1299"
     inkscape:cy="3237.8342"
     inkscape:window-width="1440"
     inkscape:window-height="776"
     inkscape:window-x="0"
     inkscape:window-y="25"
     inkscape:window-maximized="1"
     inkscape:current-layer="svg1"><inkscape:page
       x="9.3227624e-14"
       y="3.171621e-14"
       inkscape:label="1"
       id="page1"
       width="11283.979"
       height="4015.2305"
       margin="0"
       bleed="0" /></sodipodi:namedview><g
     id="group-R5"
     transform="matrix(1.0021686,0,0,1,818.06277,-818.06293)"
     style="display:inline"><path
       id="path2"
       d="M 4816.2925,4826.7372 H -816.29256 V 826.80319 H 4816.2925 V 4826.7372"
       style="display:inline;fill:#ffbc3e;fill-opacity:1;fill-rule:nonzero;stroke:none;stroke-width:0.133333" /><path
       id="path3"
       d="m 2285.4609,4703.3369 c -85.162,-23.9452 -172.1999,21.7671 -253.3971,56.9499 -81.184,35.1828 -184.9057,57.5244 -250.6432,-1.8173 -61.3336,-55.3464 -56.6371,-150.9667 -52.3664,-233.5988 4.1111,-78.2761 3.2463,-158.1556 -20.449,-232.7971 -23.6154,-74.6549 -73.0948,-144.1519 -144.2472,-176.2213 -71.1523,-32.0694 -164.5498,-18.4266 -213.0845,42.8794 -40.0864,50.7098 -43.4791,120.1266 -57.3556,183.3969 -13.8633,63.19 -50.5571,132.4733 -114.4851,141.2389 -62.4912,8.5652 -115.3632,-45.1911 -150.6067,-97.7849 -35.2569,-52.527 -70.2876,-113.392 -130.59682,-132.0324 -80.4788,-24.8938 -166.63862,46.2067 -184.12071,128.9858 -17.41556,82.7791 16.604,168.0169 61.90575,239.3312 44.05114,69.4303 99.38448,131.7384 136.66363,204.87 H 496.31422 c 13.01178,-20.6714 24.70642,-41.7837 29.76213,-65.4349 14.08944,-66.2367 -27.22097,-129.7207 -53.59045,-192.109 -53.01836,-125.4315 -45.7275,-274.8748 19.14514,-394.507 64.85935,-119.5521 185.99665,-206.7541 319.62685,-229.9777 66.66876,-11.5984 135.35979,-8.1109 201.66931,-21.7537 66.243,-13.7097 133.7766,-49.9882 158.6293,-113.2451 22.9636,-58.5534 4.763,-128.1172 31.199,-185.2141 37.1994,-80.4541 144.4734,-99.3216 231.5778,-84.2356 138.9121,24.0253 266.3291,108.6752 342.6037,227.666 42.8405,66.731 69.5692,142.3346 106.1831,212.6201 36.6938,70.2319 86.6122,137.9919 158.4031,170.9966 153.281,70.4458 338.7055,-40.835 499.0644,11.1709 90.0048,29.2366 157.8311,107.232 197.1325,193.6991 39.2882,86.5473 53.8832,181.8869 68.1057,275.9037 10.2577,67.466 17.1893,132.0324 13.2911,194.4207 h -403.485 c -27.6733,-56.8029 -68.3451,-105.9893 -130.171,-123.4003"
       style="display:inline;fill:#ffc655;fill-opacity:1;fill-rule:nonzero;stroke:none;stroke-width:0.133333" /><path
       id="path4"
       d="m 3143.7596,3998.2511 c -13.1848,60.3039 -26.7953,120.581 -33.3544,181.1387 -17.6284,162.9659 16.3246,337.8109 128.0024,462.4674 151.0192,168.538 459.457,188.2339 590.0272,3.2603 74.3454,-105.3078 77.6582,-243.5937 78.1771,-372.6864 1.1176,-277.9882 1.1309,-562.7243 -93.0249,-824.1434 -94.1691,-261.4056 -303.3156,-499.0933 -576.1107,-546.1818 -289.9312,-50.0283 -599.1007,117.855 -874.131,13.0415 -214.1489,-81.6299 -339.0248,-305.9821 -408.9664,-525.0428 -69.9417,-219.0607 -105.0256,-453.3409 -223.0363,-650.4982 -135.4529,-226.287 -378.7919,-384.003 -639.8923,-414.7335 -137.08941,-16.1349 -282.95974,3.2283 -397.23193,80.9966 -114.25888,77.7696 -189.1498,221.3684 -161.33013,357.1529 23.4558,114.5131 110.50702,202.879 179.09162,297.346 68.57129,94.4671 121.81582,221.1813 69.23652,325.487 -54.0295,107.1786 -192.01027,137.217 -311.60425,137.8049 -119.60729,0.6013 -248.02213,-13.6829 -350.67951,47.9705 -158.110451,94.9521 -175.03375,316.0305 -159.281245,500.376 15.739201,184.3456 38.5696903,393.2376 -82.860305,532.3787 -127.12432,145.6752 -356.71974,146.6507 -508.33761,266.3898 -149.6492,118.1891 -193.72654,333.1743 -161.18405,521.5686 24.60025,142.495 94.47578,286.3129 220.64178,356.0371 126.16639,69.7376 312.44243,34.675 372.73833,-96.6759 27.32741,-59.5154 44.47688,-145.742 109.66884,-148.4679 32.489542,-1.363 60.09634,21.7671 89.49924298,35.7306 C 122.63127,4597.2807 268.74108,4481.7774 302.09541,4349.5179 c 33.36764,-132.2595 -7.1179,-270.2247 -31.83762,-404.3817 -24.71973,-134.1703 -28.59133,-287.6892 60.90791,-390.338 85.88042,-98.5065 228.05211,-117.6947 348.85679,-166.9078 255.08682,-103.9049 432.54201,-375.5727 425.84981,-651.9574 -5.2286,-216.3348 -111.61127,-420.844 -114.71122,-637.2336 -0.8914,-61.9701 10.49722,-130.9861 59.23152,-169.0097 70.9262,-55.3411 175.7655,-13.6215 244.8956,43.9471 183.2559,152.5741 270.7329,412.3923 217.3021,645.3498 -28.8973,125.9258 -95.433,245.3976 -92.4262,374.5972 3.1265,133.9966 81.011,254.4573 168.2218,355.9168 139.2979,162.044 329.1396,303.8308 542.2375,298.9403 138.0872,-3.1669 266.3557,-67.2923 392.0032,-124.8836 120.5386,-55.2395 265.6372,-125.6185 401.0103,-128.4379 127.1643,-2.6458 217.2356,159.4784 241.636,267.1647 25.6777,113.352 2.8206,224.6996 -21.5133,335.967"
       style="display:inline;fill:#ffc655;fill-opacity:1;fill-rule:nonzero;stroke:none;stroke-width:0.133333" /><path
       id="path5"
       d="m -816.29256,3647.5589 v -289.0254 c 73.09455,-30.4659 145.40467,-64.7802 187.15413,-130.3621 76.63381,-120.2067 12.55943,-277.4136 -52.73896,-404.1545 -65.29839,-126.7409 -130.95601,-282.7184 -56.70343,-404.3817 113.9127,-186.7374 452.25895,-119.7792 552.94726,-314.0516 48.10901,-92.8609 15.52633,-209.8795 -45.71419,-294.6856 -61.18731,-84.8062 -147.14756,-147.7037 -220.8943,-221.7733 -73.74674,-74.0709 -138.47304,-168.0904 -137.82112,-272.7769 0.93132,-146.2551 124.3836,-258.5568 240.10597,-347.35295 56.19813,-43.16594 115.28333,-89.37941 163.24598,-142.19166 h 600.97671 c 0,0.0705 0,0.0705 0,0.1451 9.03374,63.11362 -6.71877,134.28175 -56.9964,173.16991 -38.78256,30.0316 -90.93613,35.9084 -139.90992,34.3142 -48.97379,-1.6689 -98.17376,-9.6488 -146.775033,-2.9757 -152.203262,20.8932 -179.065007,230.1914 -128.947029,349.1662 37.066284,88.0732 105.903668,158.0807 172.066852,226.9284 66.16318,68.7741 133.05811,141.4661 164.61634,231.7147 43.99792,125.7241 10.55046,281.2633 -97.44202,360.921 -120.046328,88.4982 -216.557032,197.6811 -353.07431,266.2428 -46.0069,23.1434 -94.26225,43.0264 -135.14692,74.4411 -40.88467,31.4012 -74.33213,77.3273 -76.42094,128.9857 -3.25959,82.0442 54.09602,134.3441 86.6787,202.4782 31.13248,64.994 43.77174,138.1255 37.91777,209.8808 -11.54829,141.8135 -96.4974,271.748 -220.16255,336.6752 -119.32789,62.6155 -283.58515,84.0886 -331.25518,210.5356 -2.24825,5.9462 -4.12439,11.9725 -5.70741,18.1325"
       style="display:inline;fill:#ffc655;fill-opacity:1;fill-rule:nonzero;stroke:none;stroke-width:0.133333" /><path
       id="path6"
       d="m 4596.9947,4826.7372 h -451.3146 c -36.2547,-52.8878 -49.1867,-122.0908 -12.7191,-172.5868 41.0311,-56.8029 124.7561,-66.0897 170.6965,-118.9774 44.6366,-51.2843 40.6718,-131.7518 8.7411,-191.8151 -31.9973,-60.1435 -86.386,-104.3992 -139.564,-146.6908 -53.1514,-42.2915 -107.9127,-85.8925 -141.2138,-145.2342 -17.3357,-31.0539 -28.3119,-67.6798 -20.0765,-102.288 8.302,-34.5414 40.4457,-64.7936 75.7025,-61.6668 29.7622,2.6056 54.0961,26.6978 83.6453,30.6797 41.0975,5.5988 78.8024,-31.8422 86.1731,-72.8376 7.4372,-40.982 -8.302,-82.6989 -29.1102,-118.7503 -58.5796,-101.4194 -155.8088,-173.2415 -235.6223,-258.8534 -79.7471,-85.6788 -145.8438,-201.8234 -118.1039,-315.7232 21.4468,-88.2176 102.5775,-158.3694 192.569,-166.7074 90.0847,-8.2713 182.471,45.926 219.5905,128.6918 24.7863,55.3598 27.5935,122.1042 68.1189,167.0815 42.4014,47.0084 113.7001,54.9189 176.1115,45.1911 62.398,-9.7945 122.3613,-33.8065 185.3447,-38.8173 33.5938,-2.6724 69.4893,1.7505 100.3291,14.8054 v 459.0065 c -47.0181,-96.4887 -118.1039,-190.2917 -220.6681,-214.3705 -38.2105,-8.926 -82.8604,0.5078 -106.835,31.6953 -28.751,37.2138 -19.6507,92.2796 3.7518,133.128 23.4026,40.8484 58.8058,73.4924 84.2307,113.0981 25.4914,39.6057 40.0066,92.2129 17.1894,133.3419 -23.5489,42.3583 -77.645,57.9654 -107.0479,96.4086 -36.0418,47.3023 -24.9193,116.8796 5.2021,168.244 30.1213,51.2843 75.769,91.4112 111.3053,139.061 95.7789,128.5581 105.4646,321.3887 7.517,448.2766 -4.4038,5.7324 -9.1003,11.2377 -13.9431,16.6093"
       style="display:inline;fill:#ffc655;fill-opacity:1;fill-rule:nonzero;stroke:none;stroke-width:0.133333" /><path
       id="path7"
       d="m 2385.5771,2096.2247 c -196.9728,-166.0593 -226.5886,-481.5634 -438.0234,-628.6162 -116.0018,-80.6733 -269.3492,-96.124 -379.803,-184.3429 -90.4971,-72.1842 -148.7973,-190.364 -258.5194,-226.7079 -91.0825,-30.1065 -188.7374,6.0223 -283.2258,22.5608 -108.05897,18.8635 -225.7238,9.6489 -316.95263,-51.434 C 642.09142,982.84882 594.34164,905.6618 588.20827,826.80319 h 411.78699 c 10.84314,9.28473 22.91034,16.90375 36.84014,22.27003 58.5929,22.56135 120.4188,-6.59868 182.8301,-22.27003 25.212,-6.31262 50.5571,-10.44657 75.7691,-8.05181 13.0783,1.23236 25.3583,3.98832 36.8401,8.05181 144.1806,50.56258 173.3574,303.53411 329.4588,356.56621 50.8498,17.2654 106.3294,9.2133 159.7735,14.4379 122.5875,11.9699 229.6354,94.598 300.5616,195.8024 43.346,61.8097 75.3432,130.2939 102.7239,200.9561 25.4248,65.7276 121.4832,52.2317 128.3483,-17.9214 3.3261,-33.9535 0.5854,-68.845 -7.6501,-101.4195 -23.0433,-91.2655 -80.6118,-169.1072 -136.8765,-244.3353 -88.7143,-118.5446 -177.4818,-237.01291 -266.0364,-355.6984 -11.4951,-15.38115 -24.9991,-31.55842 -38.9422,-48.38801 h 259.9696 c -8.8874,23.21634 -7.4372,49.33018 2.3149,72.40144 77.9377,183.54167 191.8507,348.07907 288.9335,521.68407 64.7928,115.9295 122.787,237.5901 155.3032,367.0128 23.1098,91.9898 90.2176,262.0404 5.6278,338.5045 -62.8371,56.7976 -165.4147,24.3741 -230.2075,-30.1813"
       style="display:inline;fill:#ffc655;fill-opacity:1;fill-rule:nonzero;stroke:none;stroke-width:0.133333" /><path
       id="path8"
       d="m 4816.2925,3014.1617 c -44.7829,-53.6895 -89.8585,-107.6597 -142.0121,-151.5546 -121.563,-102.3682 -281.8554,-148.0003 -439.8993,-162.1375 -369.5453,-33.085 -759.7391,105.4014 -1112.2413,-59.0612 -160.7181,-75.0023 -297.1689,-216.6956 -334.0755,-390.8056 -28.3253,-133.7762 2.8072,-271.9044 15.7392,-408.0751 19.2915,-202.6211 -3.0334,-411.3381 -82.7805,-598.3654 -72.8021,-170.8457 -195.536,-322.39685 -353.9391,-417.35911 h 319.3474 c 21.5932,26.18837 41.8959,53.32269 61.0277,81.25339 136.4508,199.35512 212.2996,436.14752 244.8823,675.91702 23.9081,175.4156 27.0879,359.252 106.9015,517.0401 96.7901,191.3728 294.8539,314.8533 501.2995,370.4937 392.2161,105.7756 893.1564,-47.2221 1215.7502,260.4436 v 282.2107"
       style="display:inline;fill:#ffc655;fill-opacity:1;fill-rule:nonzero;stroke:none;stroke-width:0.133333" /><path
       id="path9"
       d="m 4516.2365,2339.5419 c -103.0033,-22.9163 -159.3478,-138.2726 -168.1553,-243.8985 -8.7411,-105.6272 14.728,-212.3434 1.5167,-317.4616 -13.2247,-105.1221 -81.1973,-216.9882 -186.2228,-226.6384 -67.5336,-6.1667 -131.6745,31.7754 -181.38,77.9888 -49.6922,46.2828 -90.3507,102.0007 -143.0099,144.8026 -150.8994,122.6027 -392.5221,108.1688 -531.8599,-27.5663 -139.258,-135.735 -162.7404,-372.9644 -57.635,-536.7748 45.5678,-70.9496 113.0349,-132.178 129.0801,-215.10148 10.9762,-56.94857 -4.2708,-112.95309 -25.2919,-168.08903 h 435.9347 c 8.5281,27.27566 15.5263,54.99083 21.021,83.06718 11.402,58.54455 16.3246,118.75613 35.4565,175.27043 19.1451,56.5143 55.8389,110.7784 111.0259,132.9785 103.8015,41.789 216.7034,-43.3833 328.3013,-36.9988 109.2165,6.2415 196.0416,101.0587 233.9593,204.0723 37.8513,103.0176 38.6496,215.3941 50.8498,324.5048 6.1466,55.4975 17.1228,114.262 55.3333,154.7402 44.7164,47.2997 115.3632,57.8211 180.3023,58.9088 3.6055,0.073 7.2244,0.1443 10.8299,0.073 v 410.0286 c -34.605,-20.8852 -81.1174,-17.117 -143.1695,-5.7992 -52.0073,9.5005 -105.305,23.3572 -156.8865,11.8924"
       style="display:inline;fill:#ffc655;fill-opacity:1;fill-rule:nonzero;stroke:none;stroke-width:0.133333" /></g><g
     id="group-R5-3"
     transform="matrix(-1.0021686,0,0,1,10465.916,-811.50674)"
     style="display:inline"><path
       id="path2-9"
       d="M 4816.2925,4826.7372 H -816.29256 V 826.80319 H 4816.2925 V 4826.7372"
       style="display:inline;fill:#ffbc3e;fill-opacity:1;fill-rule:nonzero;stroke:none;stroke-width:0.133333" /><path
       id="path3-8"
       d="m 2285.4609,4703.3369 c -85.162,-23.9452 -172.1999,21.7671 -253.3971,56.9499 -81.184,35.1828 -184.9057,57.5244 -250.6432,-1.8173 -61.3336,-55.3464 -56.6371,-150.9667 -52.3664,-233.5988 4.1111,-78.2761 3.2463,-158.1556 -20.449,-232.7971 -23.6154,-74.6549 -73.0948,-144.1519 -144.2472,-176.2213 -71.1523,-32.0694 -164.5498,-18.4266 -213.0845,42.8794 -40.0864,50.7098 -43.4791,120.1266 -57.3556,183.3969 -13.8633,63.19 -50.5571,132.4733 -114.4851,141.2389 -62.4912,8.5652 -115.3632,-45.1911 -150.6067,-97.7849 -35.2569,-52.527 -70.2876,-113.392 -130.59682,-132.0324 -80.4788,-24.8938 -166.63862,46.2067 -184.12071,128.9858 -17.41556,82.7791 16.604,168.0169 61.90575,239.3312 44.05114,69.4303 99.38448,131.7384 136.66363,204.87 H 496.31422 c 13.01178,-20.6714 24.70642,-41.7837 29.76213,-65.4349 14.08944,-66.2367 -27.22097,-129.7207 -53.59045,-192.109 -53.01836,-125.4315 -45.7275,-274.8748 19.14514,-394.507 64.85935,-119.5521 185.99665,-206.7541 319.62685,-229.9777 66.66876,-11.5984 135.35979,-8.1109 201.66931,-21.7537 66.243,-13.7097 133.7766,-49.9882 158.6293,-113.2451 22.9636,-58.5534 4.763,-128.1172 31.199,-185.2141 37.1994,-80.4541 144.4734,-99.3216 231.5778,-84.2356 138.9121,24.0253 266.3291,108.6752 342.6037,227.666 42.8405,66.731 69.5692,142.3346 106.1831,212.6201 36.6938,70.2319 86.6122,137.9919 158.4031,170.9966 153.281,70.4458 338.7055,-40.835 499.0644,11.1709 90.0048,29.2366 157.8311,107.232 197.1325,193.6991 39.2882,86.5473 53.8832,181.8869 68.1057,275.9037 10.2577,67.466 17.1893,132.0324 13.2911,194.4207 h -403.485 c -27.6733,-56.8029 -68.3451,-105.9893 -130.171,-123.4003"
       style="display:inline;fill:#ffc655;fill-opacity:1;fill-rule:nonzero;stroke:none;stroke-width:0.133333" /><path
       id="path4-6"
       d="m 3143.7596,3998.2511 c -13.1848,60.3039 -26.7953,120.581 -33.3544,181.1387 -17.6284,162.9659 16.3246,337.8109 128.0024,462.4674 151.0192,168.538 459.457,188.2339 590.0272,3.2603 74.3454,-105.3078 77.6582,-243.5937 78.1771,-372.6864 1.1176,-277.9882 1.1309,-562.7243 -93.0249,-824.1434 -94.1691,-261.4056 -303.3156,-499.0933 -576.1107,-546.1818 -289.9312,-50.0283 -599.1007,117.855 -874.131,13.0415 -214.1489,-81.6299 -339.0248,-305.9821 -408.9664,-525.0428 -69.9417,-219.0607 -105.0256,-453.3409 -223.0363,-650.4982 -135.4529,-226.287 -378.7919,-384.003 -639.8923,-414.7335 -137.08941,-16.1349 -282.95974,3.2283 -397.23193,80.9966 -114.25888,77.7696 -189.1498,221.3684 -161.33013,357.1529 23.4558,114.5131 110.50702,202.879 179.09162,297.346 68.57129,94.4671 121.81582,221.1813 69.23652,325.487 -54.0295,107.1786 -192.01027,137.217 -311.60425,137.8049 -119.60729,0.6013 -248.02213,-13.6829 -350.67951,47.9705 -158.110451,94.9521 -175.03375,316.0305 -159.281245,500.376 15.739201,184.3456 38.5696903,393.2376 -82.860305,532.3787 -127.12432,145.6752 -356.71974,146.6507 -508.33761,266.3898 -149.6492,118.1891 -193.72654,333.1743 -161.18405,521.5686 24.60025,142.495 94.47578,286.3129 220.64178,356.0371 126.16639,69.7376 312.44243,34.675 372.73833,-96.6759 27.32741,-59.5154 44.47688,-145.742 109.66884,-148.4679 32.489542,-1.363 60.09634,21.7671 89.49924298,35.7306 C 122.63127,4597.2807 268.74108,4481.7774 302.09541,4349.5179 c 33.36764,-132.2595 -7.1179,-270.2247 -31.83762,-404.3817 -24.71973,-134.1703 -28.59133,-287.6892 60.90791,-390.338 85.88042,-98.5065 228.05211,-117.6947 348.85679,-166.9078 255.08682,-103.9049 432.54201,-375.5727 425.84981,-651.9574 -5.2286,-216.3348 -111.61127,-420.844 -114.71122,-637.2336 -0.8914,-61.9701 10.49722,-130.9861 59.23152,-169.0097 70.9262,-55.3411 175.7655,-13.6215 244.8956,43.9471 183.2559,152.5741 270.7329,412.3923 217.3021,645.3498 -28.8973,125.9258 -95.433,245.3976 -92.4262,374.5972 3.1265,133.9966 81.011,254.4573 168.2218,355.9168 139.2979,162.044 329.1396,303.8308 542.2375,298.9403 138.0872,-3.1669 266.3557,-67.2923 392.0032,-124.8836 120.5386,-55.2395 265.6372,-125.6185 401.0103,-128.4379 127.1643,-2.6458 217.2356,159.4784 241.636,267.1647 25.6777,113.352 2.8206,224.6996 -21.5133,335.967"
       style="display:inline;fill:#ffc655;fill-opacity:1;fill-rule:nonzero;stroke:none;stroke-width:0.133333" /><path
       id="path5-5"
       d="m -816.29256,3647.5589 v -289.0254 c 73.09455,-30.4659 145.40467,-64.7802 187.15413,-130.3621 76.63381,-120.2067 12.55943,-277.4136 -52.73896,-404.1545 -65.29839,-126.7409 -130.95601,-282.7184 -56.70343,-404.3817 113.9127,-186.7374 452.25895,-119.7792 552.94726,-314.0516 48.10901,-92.8609 15.52633,-209.8795 -45.71419,-294.6856 -61.18731,-84.8062 -147.14756,-147.7037 -220.8943,-221.7733 -73.74674,-74.0709 -138.47304,-168.0904 -137.82112,-272.7769 0.93132,-146.2551 124.3836,-258.5568 240.10597,-347.35295 56.19813,-43.16594 115.28333,-89.37941 163.24598,-142.19166 h 600.97671 c 0,0.0705 0,0.0705 0,0.1451 9.03374,63.11362 -6.71877,134.28175 -56.9964,173.16991 -38.78256,30.0316 -90.93613,35.9084 -139.90992,34.3142 -48.97379,-1.6689 -98.17376,-9.6488 -146.775033,-2.9757 -152.203262,20.8932 -179.065007,230.1914 -128.947029,349.1662 37.066284,88.0732 105.903668,158.0807 172.066852,226.9284 66.16318,68.7741 133.05811,141.4661 164.61634,231.7147 43.99792,125.7241 10.55046,281.2633 -97.44202,360.921 -120.046328,88.4982 -216.557032,197.6811 -353.07431,266.2428 -46.0069,23.1434 -94.26225,43.0264 -135.14692,74.4411 -40.88467,31.4012 -74.33213,77.3273 -76.42094,128.9857 -3.25959,82.0442 54.09602,134.3441 86.6787,202.4782 31.13248,64.994 43.77174,138.1255 37.91777,209.8808 -11.54829,141.8135 -96.4974,271.748 -220.16255,336.6752 -119.32789,62.6155 -283.58515,84.0886 -331.25518,210.5356 -2.24825,5.9462 -4.12439,11.9725 -5.70741,18.1325"
       style="display:inline;fill:#ffc655;fill-opacity:1;fill-rule:nonzero;stroke:none;stroke-width:0.133333" /><path
       id="path6-7"
       d="m 4596.9947,4826.7372 h -451.3146 c -36.2547,-52.8878 -49.1867,-122.0908 -12.7191,-172.5868 41.0311,-56.8029 124.7561,-66.0897 170.6965,-118.9774 44.6366,-51.2843 40.6718,-131.7518 8.7411,-191.8151 -31.9973,-60.1435 -86.386,-104.3992 -139.564,-146.6908 -53.1514,-42.2915 -107.9127,-85.8925 -141.2138,-145.2342 -17.3357,-31.0539 -28.3119,-67.6798 -20.0765,-102.288 8.302,-34.5414 40.4457,-64.7936 75.7025,-61.6668 29.7622,2.6056 54.0961,26.6978 83.6453,30.6797 41.0975,5.5988 78.8024,-31.8422 86.1731,-72.8376 7.4372,-40.982 -8.302,-82.6989 -29.1102,-118.7503 -58.5796,-101.4194 -155.8088,-173.2415 -235.6223,-258.8534 -79.7471,-85.6788 -145.8438,-201.8234 -118.1039,-315.7232 21.4468,-88.2176 102.5775,-158.3694 192.569,-166.7074 90.0847,-8.2713 182.471,45.926 219.5905,128.6918 24.7863,55.3598 27.5935,122.1042 68.1189,167.0815 42.4014,47.0084 113.7001,54.9189 176.1115,45.1911 62.398,-9.7945 122.3613,-33.8065 185.3447,-38.8173 33.5938,-2.6724 69.4893,1.7505 100.3291,14.8054 v 459.0065 c -47.0181,-96.4887 -118.1039,-190.2917 -220.6681,-214.3705 -38.2105,-8.926 -82.8604,0.5078 -106.835,31.6953 -28.751,37.2138 -19.6507,92.2796 3.7518,133.128 23.4026,40.8484 58.8058,73.4924 84.2307,113.0981 25.4914,39.6057 40.0066,92.2129 17.1894,133.3419 -23.5489,42.3583 -77.645,57.9654 -107.0479,96.4086 -36.0418,47.3023 -24.9193,116.8796 5.2021,168.244 30.1213,51.2843 75.769,91.4112 111.3053,139.061 95.7789,128.5581 105.4646,321.3887 7.517,448.2766 -4.4038,5.7324 -9.1003,11.2377 -13.9431,16.6093"
       style="display:inline;fill:#ffc655;fill-opacity:1;fill-rule:nonzero;stroke:none;stroke-width:0.133333" /><path
       id="path7-6"
       d="m 2385.5771,2096.2247 c -196.9728,-166.0593 -226.5886,-481.5634 -438.0234,-628.6162 -116.0018,-80.6733 -269.3492,-96.124 -379.803,-184.3429 -90.4971,-72.1842 -148.7973,-190.364 -258.5194,-226.7079 -91.0825,-30.1065 -188.7374,6.0223 -283.2258,22.5608 -108.05897,18.8635 -225.7238,9.6489 -316.95263,-51.434 C 642.09142,982.84882 594.34164,905.6618 588.20827,826.80319 h 411.78699 c 10.84314,9.28473 22.91034,16.90375 36.84014,22.27003 58.5929,22.56135 120.4188,-6.59868 182.8301,-22.27003 25.212,-6.31262 50.5571,-10.44657 75.7691,-8.05181 13.0783,1.23236 25.3583,3.98832 36.8401,8.05181 144.1806,50.56258 173.3574,303.53411 329.4588,356.56621 50.8498,17.2654 106.3294,9.2133 159.7735,14.4379 122.5875,11.9699 229.6354,94.598 300.5616,195.8024 43.346,61.8097 75.3432,130.2939 102.7239,200.9561 25.4248,65.7276 121.4832,52.2317 128.3483,-17.9214 3.3261,-33.9535 0.5854,-68.845 -7.6501,-101.4195 -23.0433,-91.2655 -80.6118,-169.1072 -136.8765,-244.3353 -88.7143,-118.5446 -177.4818,-237.01291 -266.0364,-355.6984 -11.4951,-15.38115 -24.9991,-31.55842 -38.9422,-48.38801 h 259.9696 c -8.8874,23.21634 -7.4372,49.33018 2.3149,72.40144 77.9377,183.54167 191.8507,348.07907 288.9335,521.68407 64.7928,115.9295 122.787,237.5901 155.3032,367.0128 23.1098,91.9898 90.2176,262.0404 5.6278,338.5045 -62.8371,56.7976 -165.4147,24.3741 -230.2075,-30.1813"
       style="display:inline;fill:#ffc655;fill-opacity:1;fill-rule:nonzero;stroke:none;stroke-width:0.133333" /><path
       id="path8-2"
       d="m 4816.2925,3014.1617 c -44.7829,-53.6895 -89.8585,-107.6597 -142.0121,-151.5546 -121.563,-102.3682 -281.8554,-148.0003 -439.8993,-162.1375 -369.5453,-33.085 -759.7391,105.4014 -1112.2413,-59.0612 -160.7181,-75.0023 -297.1689,-216.6956 -334.0755,-390.8056 -28.3253,-133.7762 2.8072,-271.9044 15.7392,-408.0751 19.2915,-202.6211 -3.0334,-411.3381 -82.7805,-598.3654 -72.8021,-170.8457 -195.536,-322.39685 -353.9391,-417.35911 h 319.3474 c 21.5932,26.18837 41.8959,53.32269 61.0277,81.25339 136.4508,199.35512 212.2996,436.14752 244.8823,675.91702 23.9081,175.4156 27.0879,359.252 106.9015,517.0401 96.7901,191.3728 294.8539,314.8533 501.2995,370.4937 392.2161,105.7756 893.1564,-47.2221 1215.7502,260.4436 v 282.2107"
       style="display:inline;fill:#ffc655;fill-opacity:1;fill-rule:nonzero;stroke:none;stroke-width:0.133333" /><path
       id="path9-7"
       d="m 4516.2365,2339.5419 c -103.0033,-22.9163 -159.3478,-138.2726 -168.1553,-243.8985 -8.7411,-105.6272 14.728,-212.3434 1.5167,-317.4616 -13.2247,-105.1221 -81.1973,-216.9882 -186.2228,-226.6384 -67.5336,-6.1667 -131.6745,31.7754 -181.38,77.9888 -49.6922,46.2828 -90.3507,102.0007 -143.0099,144.8026 -150.8994,122.6027 -392.5221,108.1688 -531.8599,-27.5663 -139.258,-135.735 -162.7404,-372.9644 -57.635,-536.7748 45.5678,-70.9496 113.0349,-132.178 129.0801,-215.10148 10.9762,-56.94857 -4.2708,-112.95309 -25.2919,-168.08903 h 435.9347 c 8.5281,27.27566 15.5263,54.99083 21.021,83.06718 11.402,58.54455 16.3246,118.75613 35.4565,175.27043 19.1451,56.5143 55.8389,110.7784 111.0259,132.9785 103.8015,41.789 216.7034,-43.3833 328.3013,-36.9988 109.2165,6.2415 196.0416,101.0587 233.9593,204.0723 37.8513,103.0176 38.6496,215.3941 50.8498,324.5048 6.1466,55.4975 17.1228,114.262 55.3333,154.7402 44.7164,47.2997 115.3632,57.8211 180.3023,58.9088 3.6055,0.073 7.2244,0.1443 10.8299,0.073 v 410.0286 c -34.605,-20.8852 -81.1174,-17.117 -143.1695,-5.7992 -52.0073,9.5005 -105.305,23.3572 -156.8865,11.8924"
       style="display:inline;fill:#ffc655;fill-opacity:1;fill-rule:nonzero;stroke:none;stroke-width:0.133333" /></g></svg>
