<?xml version="1.0" encoding="UTF-8" standalone="no"?>
<!-- Created with Inkscape (http://www.inkscape.org/) -->

<svg
   width="600mm"
   height="200mm"
   viewBox="0 0 600 200"
   version="1.1"
   id="svg1"
   xml:space="preserve"
   sodipodi:docname="rango3.svg"
   inkscape:version="1.4 (e7c3feb1, 2024-10-09)"
   xmlns:inkscape="http://www.inkscape.org/namespaces/inkscape"
   xmlns:sodipodi="http://sodipodi.sourceforge.net/DTD/sodipodi-0.dtd"
   xmlns="http://www.w3.org/2000/svg"
   xmlns:svg="http://www.w3.org/2000/svg"><sodipodi:namedview
     id="namedview1"
     pagecolor="#ffffff"
     bordercolor="#000000"
     borderopacity="0.25"
     inkscape:showpageshadow="2"
     inkscape:pageopacity="0.0"
     inkscape:pagecheckerboard="0"
     inkscape:deskcolor="#d1d1d1"
     inkscape:document-units="mm"
     inkscape:zoom="0.29251443"
     inkscape:cx="509.37658"
     inkscape:cy="329.89825"
     inkscape:window-width="1440"
     inkscape:window-height="776"
     inkscape:window-x="0"
     inkscape:window-y="25"
     inkscape:window-maximized="0"
     inkscape:current-layer="svg1" /><defs
     id="defs1" /><path
     id="path14"
     style="fill:#4d2d17;fill-rule:nonzero;stroke:none;stroke-width:6.828;stroke-dasharray:none;stroke-opacity:1;fill-opacity:1"
     d="m 399.76628,175.27048 c -11.35464,-1.35429 -17.67693,-13.77928 -15.48634,-24.28489 1.17687,-10.71223 10.72833,-21.38013 22.23734,-19.21947 12.54762,1.07014 20.42186,14.40985 18.2713,26.22605 -0.75807,9.99685 -9.77359,18.44832 -19.93124,17.44494 -1.70258,0.12645 -3.39315,-0.0585 -5.09106,-0.16663 z m 9.0669,-8.17809 c 9.68731,-4.90802 7.21302,-18.9653 -0.91641,-24.0791 -8.43032,-6.59177 -14.95864,5.48442 -13.47696,12.95045 0.43953,6.88606 6.83374,15.11206 14.39337,11.12865 z M 348.078,188.79115 c -6.54178,0.43119 -11.30531,-8.95118 -2.22617,-9.03044 6.26203,1.32355 13.31545,7.1923 17.49993,-1.54181 4.24346,-9.48364 -7.75861,-9.30125 -11.78265,-4.07307 -12.74729,0.20502 -18.74243,-14.73517 -16.71107,-25.59904 0.56013,-11.64255 13.14975,-19.13681 23.45223,-13.49816 6.426,3.64409 15.6504,-6.66201 16.51434,3.6647 4.70732,15.36854 3.96322,33.33988 -4.99228,47.05793 -6.14054,4.94022 -14.49932,3.58399 -21.75433,3.01989 z m 11.44862,-22.60284 c 9.61319,-4.08055 7.94578,-17.6245 -0.36591,-22.17717 -8.34011,-6.94081 -15.76102,4.0668 -13.5808,12.08438 0.61646,6.40382 7.02916,14.10823 13.94671,10.09279 z M 288.2112,154.0834 c 1.91526,-6.12444 -4.50111,-21.30847 4.53332,-20.88395 8.56523,7.6684 19.96372,-4.47145 28.82643,1.78769 6.12124,7.01996 8.05615,17.15904 5.93237,26.20691 0.37429,6.00293 -7.48489,19.13164 -10.13825,7.34392 2.28313,-8.20723 1.39473,-18.96786 -6.72201,-24.42145 -7.31418,-6.39801 -14.07355,5.18511 -10.98884,11.56895 1.40854,6.46793 -0.71984,19.00188 -8.64727,18.65378 -4.87106,-5.40712 -2.02808,-13.67576 -2.79575,-20.25585 z m -36.14723,20.87982 c -9.0903,-1.44327 -13.01357,-12.74358 -5.17905,-18.53329 4.78978,-6.32458 15.07308,-8.2117 20.28358,-10.42188 -3.41845,-8.7866 -16.32007,-0.63416 -20.7183,-5.81749 5.46826,-10.57565 22.52914,-11.98822 28.74864,-1.32827 6.23695,9.13455 6.49879,21.00766 4.03253,31.43255 -4.82618,8.88024 -17.43884,-3.68405 -23.38099,4.86615 -1.26214,-0.0659 -2.52427,-0.13185 -3.78641,-0.19777 z m 11.61835,-7.42766 c 6.84106,-3.01621 5.35713,-11.83384 -2.52246,-9.74716 -9.47066,-1.30722 -11.30575,10.39572 -1.31895,10.82865 1.4082,0.0768 2.57622,-0.57719 3.84141,-1.08149 z m -70.99628,-21.02995 c 0,-9.50494 0,-19.00988 0,-28.51482 12.72421,0.19014 27.25768,-2.18498 38.12073,5.98629 7.6961,6.2726 5.46905,15.96365 -0.11676,22.50846 -4.30475,8.16421 -2.41869,18.71574 4.49193,24.85379 -7.64373,11.01005 -15.02239,-6.66642 -19.34345,-12.10101 -4.16607,-10.77552 -17.26254,-1.31533 -11.22599,6.69301 1.04884,13.31456 -19.23631,7.9897 -11.86622,-3.43577 0.0281,-5.33014 -0.21919,-10.66036 -0.0602,-15.98995 z m 27.12283,-1.85464 c 10.24696,-5.38786 2.36894,-17.89884 -6.77225,-18.22186 -10.83406,-3.22647 -13.47506,9.8325 -9.77875,17.23124 4.20459,4.61856 11.2968,1.08358 16.551,0.99062 z"
     transform="matrix(2.5600604,0,0,2.7717455,-488.42317,-325.27795)" /></svg>
